<svg xmlns="http://www.w3.org/2000/svg" xmlns:xlink="http://www.w3.org/1999/xlink" width="1024" zoomAndPan="magnify" viewBox="0 0 768 576" height="768" preserveAspectRatio="xMidYMid meet" version="1.0"><defs><clipPath id="04b85519f8"><path d="M 0 69 L 493 69 L 493 576 L 0 576 Z M 0 69 " clip-rule="nonzero"/></clipPath><clipPath id="443c025390"><path d="M 195.035156 -118.898438 L 789.234375 258.414062 L 410.445312 854.933594 L -183.753906 477.621094 Z M 195.035156 -118.898438 " clip-rule="nonzero"/></clipPath><clipPath id="1c93612eef"><path d="M 492.132812 69.757812 L 411.75 852.882812 L -182.449219 475.570312 Z M 492.132812 69.757812 " clip-rule="nonzero"/></clipPath><clipPath id="1834db0345"><path d="M 381 130 L 768 130 L 768 576 L 381 576 Z M 381 130 " clip-rule="nonzero"/></clipPath><clipPath id="94a7c58aec"><path d="M 328.210938 162.296875 L 884.464844 98.785156 L 937.769531 565.675781 L 381.519531 629.183594 Z M 328.210938 162.296875 " clip-rule="nonzero"/></clipPath><clipPath id="62bc8c6719"><path d="M 605.949219 130.585938 L 936.992188 565.761719 L 381.519531 629.183594 Z M 605.949219 130.585938 " clip-rule="nonzero"/></clipPath><clipPath id="3030d489c0"><path d="M 649.300781 0 L 768 0 L 768 122.46875 L 649.300781 122.46875 Z M 649.300781 0 " clip-rule="nonzero"/></clipPath><clipPath id="6c42281162"><path d="M 737.496094 -53.921875 C 688.785156 -53.921875 649.300781 -14.433594 649.300781 34.273438 C 649.300781 82.980469 688.785156 122.46875 737.496094 122.46875 C 786.203125 122.46875 825.691406 82.980469 825.691406 34.273438 C 825.691406 -14.433594 786.203125 -53.921875 737.496094 -53.921875 Z M 737.496094 -53.921875 " clip-rule="nonzero"/></clipPath></defs><rect x="-76.8" width="921.6" fill="#ffffff" y="-57.6" height="691.2" fill-opacity="1"/><rect x="-76.8" width="921.6" fill="#dbd8e3" y="-57.6" height="691.2" fill-opacity="1"/><g clip-path="url(#04b85519f8)"><g clip-path="url(#443c025390)"><g clip-path="url(#1c93612eef)"><path fill="#5c5470" d="M 195.035156 -118.898438 L 789.234375 258.414062 L 411.917969 852.613281 L -182.28125 475.300781 Z M 195.035156 -118.898438 " fill-opacity="1" fill-rule="nonzero"/></g></g></g><g clip-path="url(#1834db0345)"><g clip-path="url(#94a7c58aec)"><g clip-path="url(#62bc8c6719)"><path fill="#5c5470" d="M 328.210938 162.296875 L 884.464844 98.785156 L 937.769531 565.675781 L 381.519531 629.183594 Z M 328.210938 162.296875 " fill-opacity="1" fill-rule="nonzero"/></g></g></g><g clip-path="url(#3030d489c0)"><g clip-path="url(#6c42281162)"><path fill="#5c5470" d="M 649.300781 -53.921875 L 825.691406 -53.921875 L 825.691406 122.46875 L 649.300781 122.46875 Z M 649.300781 -53.921875 " fill-opacity="1" fill-rule="nonzero"/></g></g></svg>